<svg width="709" height="527" viewBox="0 0 709 527" fill="none" xmlns="http://www.w3.org/2000/svg">
<path fill="white" d="M695.461 2.22161L707.302 28.306L672.58 124.635H377.986C314.263 124.635 263.448 136.743 225.541 160.959C187.635 185.175 159.472 222.833 141.053 273.934C127.82 309.171 123.873 337.772 129.212 359.738C149.195 386.051 191.144 399.208 255.058 399.208H449.547L521.622 201.458H623.5L633.625 235.78C598.236 331.118 562.808 426.761 527.343 522.708H230.289C219.104 524.439 207.801 525.3 196.482 525.283C165.897 525.409 135.65 518.886 107.836 506.164C80.0223 493.442 55.3062 474.826 35.3999 451.606C14.8832 431.051 3.95748 404.204 2.62275 371.064C1.28802 337.925 9.31545 297.387 26.7051 249.451C40.8582 209.247 60.3273 171.117 84.5941 136.076C105.727 105.953 132.236 79.9867 162.79 59.4815C194.032 39.0857 228.641 24.3863 265.011 16.0647C307.757 6.37201 351.491 1.72592 395.319 2.22161H695.461ZM679.673 14.0626H391.372C349.688 13.6204 308.093 17.9969 267.414 27.1048C232.331 35.048 198.914 49.0848 168.682 68.5767C139.195 88.0061 113.605 112.782 93.2317 141.624C70.1244 174.903 51.6682 211.18 38.3744 249.451C8.85784 331.061 8.59088 391.466 37.5736 430.669C66.5562 469.872 127.115 489.493 219.249 489.531H506.692L607.026 212.899H528.83L456.926 411.335H250.997C183.536 411.335 139.566 397.988 119.087 371.293C98.6088 344.598 98.094 304.194 117.543 250.081C137.411 195.929 166.966 156.097 206.207 130.584C245.448 105.072 298.837 92.2967 366.374 92.2586H651.472L680.074 14.0626H679.673ZM696.777 0.791548H395.319C351.38 0.333776 307.536 4.97924 264.668 14.6346C228.141 23.1178 193.387 37.9487 161.989 58.4518C131.329 79.0573 104.693 105.093 83.3929 135.275C59.0415 170.421 39.46 208.641 25.1606 248.937C7.99979 296.815 -0.294589 337.944 1.02107 371.121C2.33673 404.299 13.4913 431.928 34.1986 452.635C54.2392 476.056 79.1337 494.837 107.156 507.678C135.178 520.519 165.658 527.111 196.482 526.999C207.972 527.02 219.446 526.16 230.804 524.424H528.544L528.887 523.509L582.143 379.759L635.112 235.78V235.322V234.865L630.078 217.704L624.987 200.543L624.644 199.514H520.707L520.364 200.486L448.06 398.064H254.772C191.849 398.064 150.206 385.022 130.528 359.395C125.437 337.658 129.441 309.114 142.369 274.392C160.616 223.882 188.875 186.128 226.285 162.16C263.696 138.192 314.835 126.065 377.986 126.065H673.552L673.896 125.15L708.675 28.7637V28.2488V27.6768L702.955 14.6918L697.234 1.6496L696.834 0.791548H696.777ZM219.249 488.101C127.725 488.101 67.2617 468.48 38.7176 429.811C10.1735 391.142 10.5167 330.679 39.6901 249.909C52.9807 211.783 71.3973 175.643 94.433 142.482C114.712 113.824 140.165 89.2056 169.483 69.8923C199.577 50.4918 232.838 36.5138 267.757 28.592C308.331 19.5601 349.806 15.2034 391.372 15.607H677.385L649.985 90.9429H366.146C298.761 90.9429 244.704 103.928 205.406 129.497C166.108 155.067 136.019 195.738 115.998 249.737C95.9775 303.737 97.0071 345.437 117.772 372.323C138.536 399.208 183.269 412.765 250.825 412.765H457.956L458.299 411.85L529.802 214.558H604.967L505.72 488.101H219.249Z"/>
</svg>
